<svg id="Layer_1" data-name="Layer 1" xmlns="http://www.w3.org/2000/svg" viewBox="0 0 584.88 185.1"><defs><style>.cls-1{fill:#d4145a;}.cls-2{fill:#5e2048;}</style></defs><title>Logo</title><path class="cls-1" d="M358.13,223.69,326,191.53l-31.21,31.21,32.16,32.15a45.48,45.48,0,1,1-64.31,0l32.14-32.14-31.21-31.21-32.14,32.15a89.61,89.61,0,1,0,126.72,0Z" transform="translate(-205.2 -191.53)"/><path class="cls-2" d="M601.45,246.9a34,34,0,0,1,34,34v34h-34a34,34,0,0,1,0-68Zm17.25,51.26V280.9a17.25,17.25,0,1,0-17.25,17.25Z" transform="translate(-205.2 -191.53)"/><path class="cls-2" d="M562.51,294.23c0-.12-.12-.22-.16-.33a17.25,17.25,0,1,1-.25-26.22c.33-.83.75-1.62,1.13-2.42A43.81,43.81,0,0,1,570.29,253a33.95,33.95,0,1,0,.19,55.68A43.69,43.69,0,0,1,562.51,294.23Z" transform="translate(-205.2 -191.53)"/><path class="cls-2" d="M452.15,246.73a34,34,0,0,0-34,34v61.58H434.9V314.73h17.25a34,34,0,1,0,0-68Zm0,51.25H434.9V280.73A17.25,17.25,0,1,1,452.15,298Z" transform="translate(-205.2 -191.53)"/><path class="cls-2" d="M675.82,263.69V247a33.88,33.88,0,0,0-33.29,34v34h16.75v-34h0a17.18,17.18,0,0,1,16.55-17.21Z" transform="translate(-205.2 -191.53)"/><polygon class="cls-2" points="304.68 121.53 287.93 121.53 287.93 57.21 304.68 57.21 304.68 121.53 304.68 121.53"/><path class="cls-2" d="M756.06,263.46a17.27,17.27,0,1,1-17.28,17.27,17.29,17.29,0,0,1,17.28-17.27m0-16.75a34,34,0,1,0,34,34,34,34,0,0,0-34-34Z" transform="translate(-205.2 -191.53)"/><path class="cls-2" d="M718.69,297.93a17.43,17.43,0,0,1-2.41.19h0a17.2,17.2,0,0,1-16.67-17.22h0V263.7h16.66V247H699.61v-21.1H682.87v55.06A33.42,33.42,0,0,0,729.74,312,34.09,34.09,0,0,1,718.69,297.93Z" transform="translate(-205.2 -191.53)"/></svg>