<svg id="Layer_1" data-name="Layer 1" xmlns="http://www.w3.org/2000/svg" viewBox="0 0 584.88 185.1"><defs><style>.cls-1{fill:#d4145a}.cls-2{fill:#5e2048}</style></defs><title>Logo</title><path class="cls-1" d="M358.13 223.69L326 191.53l-31.21 31.21 32.16 32.15a45.48 45.48 0 1 1-64.31 0l32.14-32.14-31.21-31.21-32.14 32.15a89.61 89.61 0 1 0 126.72 0z" transform="translate(-205.2 -191.53)"/><path class="cls-2" d="M601.45 246.9a34 34 0 0 1 34 34v34h-34a34 34 0 0 1 0-68zm17.25 51.26V280.9a17.25 17.25 0 1 0-17.25 17.25z" transform="translate(-205.2 -191.53)"/><path class="cls-2" d="M562.51 294.23c0-.12-.12-.22-.16-.33a17.25 17.25 0 1 1-.25-26.22c.33-.83.75-1.62 1.13-2.42a43.81 43.81 0 0 1 7.06-12.26 33.95 33.95 0 1 0 .19 55.68 43.69 43.69 0 0 1-7.97-14.45zM452.15 246.73a34 34 0 0 0-34 34v61.58h16.75v-27.58h17.25a34 34 0 1 0 0-68zm0 51.25H434.9v-17.25A17.25 17.25 0 1 1 452.15 298zM675.82 263.69V247a33.88 33.88 0 0 0-33.29 34v34h16.75v-34a17.18 17.18 0 0 1 16.55-17.21z" transform="translate(-205.2 -191.53)"/><path class="cls-2" d="M304.68 121.53h-16.75V57.21h16.75v64.32z"/><path class="cls-2" d="M756.06 263.46a17.27 17.27 0 1 1-17.28 17.27 17.29 17.29 0 0 1 17.28-17.27m0-16.75a34 34 0 1 0 34 34 34 34 0 0 0-34-34z" transform="translate(-205.2 -191.53)"/><path class="cls-2" d="M718.69 297.93a17.43 17.43 0 0 1-2.41.19 17.2 17.2 0 0 1-16.67-17.22v-17.2h16.66V247h-16.66v-21.1h-16.74v55.06A33.42 33.42 0 0 0 729.74 312a34.09 34.09 0 0 1-11.05-14.07z" transform="translate(-205.2 -191.53)"/></svg>